<?xml version="1.0" standalone="no"?>
<!DOCTYPE svg PUBLIC "-//W3C//DTD SVG 20010904//EN"
 "http://www.w3.org/TR/2001/REC-SVG-20010904/DTD/svg10.dtd">
<svg version="1.0" xmlns="http://www.w3.org/2000/svg"
 width="512.000000pt" height="512.000000pt" viewBox="0 0 512.000000 512.000000"
 preserveAspectRatio="xMidYMid meet">
<metadata>
Created by potrace 1.14, written by Peter Selinger 2001-2017
</metadata>
<g transform="translate(0.000000,512.000000) scale(0.100000,-0.100000)"
fill="#000000" stroke="none">
<path d="M2705 4677 c-51 -17 -85 -47 -143 -126 -30 -42 -79 -107 -107 -146
-115 -156 -371 -508 -385 -529 -15 -22 -87 -121 -103 -141 -4 -5 -24 -33 -45
-62 -20 -29 -81 -112 -134 -185 -97 -132 -634 -869 -791 -1086 -111 -153 -141
-212 -141 -276 0 -94 56 -171 143 -196 26 -7 534 -16 606 -10 27 2 11 2 285 0
l245 -1 -1 -662 c-1 -625 0 -664 18 -706 48 -114 176 -156 288 -95 62 34 61
32 229 264 77 107 144 200 149 205 4 6 25 35 47 65 22 30 43 57 47 58 5 2 8 8
8 13 0 5 7 17 15 26 11 14 149 203 239 328 19 26 180 247 226 310 131 178 277
379 290 398 8 13 74 103 145 201 72 98 158 217 192 264 35 48 66 92 71 97 59
74 137 194 152 233 38 99 -1 211 -89 257 -26 13 -82 27 -106 27 -26 0 -432 -1
-445 -1 -8 1 -71 0 -140 0 -69 -1 -206 0 -304 1 l-179 3 -1 660 c-1 654 -2
660 -23 700 -27 52 -65 92 -100 107 -37 15 -121 18 -158 5z"/>
</g>
</svg>
